<svg xmlns="http://www.w3.org/2000/svg" xmlns:xlink="http://www.w3.org/1999/xlink" width="500" zoomAndPan="magnify" viewBox="0 0 375 374.999991" height="500" preserveAspectRatio="xMidYMid meet" version="1.0"><defs><g/></defs><rect x="-37.5" width="450" fill="#ffffff" y="-37.499999" height="449.999989" fill-opacity="1"/><rect x="-37.5" width="450" fill="#ffffff" y="-37.499999" height="449.999989" fill-opacity="1"/><rect x="-37.5" width="450" fill="#000000" y="-37.499999" height="449.999989" fill-opacity="1"/><g fill="#ffffff" fill-opacity="1"><g transform="translate(71.680291, 215.866669)"><g><path d="M 34.125 -79.0625 C 31.363281 -78.90625 29.351562 -78.597656 28.09375 -78.140625 C 26.832031 -77.679688 25.96875 -76.800781 25.5 -75.5 C 25.039062 -74.195312 24.8125 -72.085938 24.8125 -69.171875 L 24.8125 -12.1875 C 24.8125 -9.269531 25.039062 -7.160156 25.5 -5.859375 C 25.96875 -4.554688 26.832031 -3.691406 28.09375 -3.265625 C 29.351562 -2.847656 31.363281 -2.640625 34.125 -2.640625 L 42.515625 -2.640625 C 47.265625 -2.640625 50.882812 -3.3125 53.375 -4.65625 C 55.863281 -6 57.679688 -8.160156 58.828125 -11.140625 C 59.984375 -14.128906 60.828125 -18.457031 61.359375 -24.125 L 64 -24.125 C 63.769531 -21.75 63.65625 -18.609375 63.65625 -14.703125 C 63.65625 -10.335938 63.925781 -5.4375 64.46875 0 C 59.257812 -0.226562 50.488281 -0.34375 38.15625 -0.34375 C 23.445312 -0.34375 12.335938 -0.226562 4.828125 0 L 4.828125 -2.296875 C 7.585938 -2.453125 9.597656 -2.757812 10.859375 -3.21875 C 12.117188 -3.675781 12.976562 -4.554688 13.4375 -5.859375 C 13.90625 -7.160156 14.140625 -9.269531 14.140625 -12.1875 L 14.140625 -69.171875 C 14.140625 -72.085938 13.90625 -74.195312 13.4375 -75.5 C 12.976562 -76.800781 12.117188 -77.679688 10.859375 -78.140625 C 9.597656 -78.597656 7.585938 -78.90625 4.828125 -79.0625 L 4.828125 -81.359375 C 8.046875 -81.128906 12.945312 -81.015625 19.53125 -81.015625 C 25.664062 -81.015625 30.53125 -81.128906 34.125 -81.359375 Z M 34.125 -79.0625 "/></g></g></g><g fill="#ffffff" fill-opacity="1"><g transform="translate(139.243339, 215.866669)"><g><path d="M 91.578125 -10.6875 C 91.578125 -7.539062 92.226562 -5.375 93.53125 -4.1875 C 94.832031 -3 97.09375 -2.40625 100.3125 -2.40625 L 100.3125 0 C 93.257812 -0.300781 88.664062 -0.453125 86.53125 -0.453125 C 84.382812 -0.453125 80.09375 -0.300781 73.65625 0 L 73.65625 -2.40625 C 76.488281 -2.40625 78.457031 -3 79.5625 -4.1875 C 80.675781 -5.375 81.234375 -7.539062 81.234375 -10.6875 L 81.234375 -43.890625 C 81.234375 -46.804688 81.0625 -49.160156 80.71875 -50.953125 C 80.375 -52.753906 79.566406 -54.226562 78.296875 -55.375 C 77.035156 -56.53125 75.101562 -57.109375 72.5 -57.109375 C 69.59375 -57.109375 66.953125 -56.1875 64.578125 -54.34375 C 62.203125 -52.507812 60.34375 -50.003906 59 -46.828125 C 57.664062 -43.648438 57 -40.144531 57 -36.3125 L 57 -10.6875 C 57 -7.539062 57.648438 -5.375 58.953125 -4.1875 C 60.253906 -3 62.507812 -2.40625 65.71875 -2.40625 L 65.71875 0 C 58.675781 -0.300781 54.082031 -0.453125 51.9375 -0.453125 C 49.789062 -0.453125 45.5 -0.300781 39.0625 0 L 39.0625 -2.40625 C 41.894531 -2.40625 43.867188 -3 44.984375 -4.1875 C 46.097656 -5.375 46.65625 -7.539062 46.65625 -10.6875 L 46.65625 -43.890625 C 46.65625 -46.804688 46.484375 -49.160156 46.140625 -50.953125 C 45.796875 -52.753906 44.988281 -54.226562 43.71875 -55.375 C 42.457031 -56.53125 40.523438 -57.109375 37.921875 -57.109375 C 35.003906 -57.109375 32.359375 -56.1875 29.984375 -54.34375 C 27.609375 -52.507812 25.75 -49.984375 24.40625 -46.765625 C 23.070312 -43.546875 22.40625 -40.023438 22.40625 -36.203125 L 22.40625 -10.6875 C 22.40625 -7.539062 22.957031 -5.375 24.0625 -4.1875 C 25.175781 -3 27.148438 -2.40625 29.984375 -2.40625 L 29.984375 0 C 23.554688 -0.300781 19.269531 -0.453125 17.125 -0.453125 C 14.976562 -0.453125 10.378906 -0.300781 3.328125 0 L 3.328125 -2.40625 C 6.546875 -2.40625 8.804688 -3 10.109375 -4.1875 C 11.410156 -5.375 12.0625 -7.539062 12.0625 -10.6875 L 12.0625 -46.65625 C 12.0625 -50.175781 11.410156 -52.738281 10.109375 -54.34375 C 8.804688 -55.957031 6.546875 -56.765625 3.328125 -56.765625 L 3.328125 -59.171875 C 5.785156 -58.941406 8.160156 -58.828125 10.453125 -58.828125 C 15.285156 -58.828125 19.269531 -59.363281 22.40625 -60.4375 L 22.40625 -46.875 C 24.25 -51.625 26.851562 -55.128906 30.21875 -57.390625 C 33.59375 -59.648438 37.269531 -60.78125 41.25 -60.78125 C 46.457031 -60.78125 50.441406 -59.328125 53.203125 -56.421875 C 55.117188 -54.429688 56.304688 -51.363281 56.765625 -47.21875 C 58.679688 -52.050781 61.320312 -55.519531 64.6875 -57.625 C 68.0625 -59.726562 71.78125 -60.78125 75.84375 -60.78125 C 81.050781 -60.78125 85.03125 -59.328125 87.78125 -56.421875 C 89.164062 -54.890625 90.144531 -52.9375 90.71875 -50.5625 C 91.289062 -48.1875 91.578125 -45.117188 91.578125 -41.359375 Z M 91.578125 -10.6875 "/></g></g></g><g fill="#ffffff" fill-opacity="1"><g transform="translate(241.27733, 215.866669)"><g><path d="M 29.421875 -82.625 C 32.785156 -82.625 35.441406 -82.257812 37.390625 -81.53125 C 39.347656 -80.800781 41.363281 -79.742188 43.4375 -78.359375 C 45.125 -77.285156 46.425781 -76.75 47.34375 -76.75 C 48.03125 -76.75 48.566406 -77.148438 48.953125 -77.953125 C 49.335938 -78.765625 49.644531 -80.050781 49.875 -81.8125 L 52.515625 -81.8125 C 52.128906 -77.375 51.9375 -69.5625 51.9375 -58.375 L 49.296875 -58.375 C 48.835938 -64.582031 47.054688 -69.8125 43.953125 -74.0625 C 40.847656 -78.3125 36.347656 -80.4375 30.453125 -80.4375 C 26.316406 -80.4375 22.945312 -79.191406 20.34375 -76.703125 C 17.738281 -74.210938 16.4375 -71.015625 16.4375 -67.109375 C 16.4375 -64.191406 17.101562 -61.660156 18.4375 -59.515625 C 19.78125 -57.367188 21.484375 -55.53125 23.546875 -54 C 25.617188 -52.46875 28.570312 -50.515625 32.40625 -48.140625 L 35.734375 -46.078125 C 40.554688 -43.085938 44.363281 -40.460938 47.15625 -38.203125 C 49.957031 -35.941406 52.203125 -33.351562 53.890625 -30.4375 C 55.578125 -27.53125 56.421875 -24.125 56.421875 -20.21875 C 56.421875 -13.25 54.117188 -7.867188 49.515625 -4.078125 C 44.921875 -0.285156 39.101562 1.609375 32.0625 1.609375 C 28.382812 1.609375 25.375 1.222656 23.03125 0.453125 C 20.695312 -0.304688 18.457031 -1.335938 16.3125 -2.640625 C 14.625 -3.710938 13.320312 -4.25 12.40625 -4.25 C 11.71875 -4.25 11.179688 -3.847656 10.796875 -3.046875 C 10.421875 -2.242188 10.113281 -0.960938 9.875 0.796875 L 7.234375 0.796875 C 7.546875 -3.410156 7.703125 -12.597656 7.703125 -26.765625 L 10.34375 -26.765625 C 10.875 -19.035156 12.785156 -12.753906 16.078125 -7.921875 C 19.378906 -3.097656 24.4375 -0.6875 31.25 -0.6875 C 35.382812 -0.6875 38.90625 -1.96875 41.8125 -4.53125 C 44.726562 -7.101562 46.1875 -10.914062 46.1875 -15.96875 C 46.1875 -20.257812 44.75 -23.898438 41.875 -26.890625 C 39.007812 -29.878906 34.472656 -33.25 28.265625 -37 C 23.742188 -39.757812 20.082031 -42.210938 17.28125 -44.359375 C 14.488281 -46.503906 12.210938 -49.085938 10.453125 -52.109375 C 8.691406 -55.140625 7.8125 -58.679688 7.8125 -62.734375 C 7.8125 -69.171875 9.878906 -74.09375 14.015625 -77.5 C 18.148438 -80.914062 23.285156 -82.625 29.421875 -82.625 Z M 29.421875 -82.625 "/></g></g></g><g fill="#ffffff" fill-opacity="1"><g transform="translate(117.320117, 242.378419)"><g><path d="M 4.65625 -4.65625 C 5.570312 -4.53125 6.222656 -4.265625 6.609375 -3.859375 C 7.003906 -3.460938 7.203125 -2.984375 7.203125 -2.421875 C 7.203125 -1.941406 7.082031 -1.519531 6.84375 -1.15625 C 6.601562 -0.789062 6.257812 -0.503906 5.8125 -0.296875 C 5.363281 -0.0976562 4.832031 0 4.21875 0 C 3.988281 0 3.796875 -0.00390625 3.640625 -0.015625 C 3.109375 -0.0234375 2.582031 -0.03125 2.0625 -0.03125 C 1.382812 -0.03125 0.875 -0.0195312 0.53125 0 L 0.53125 -0.25 C 0.820312 -0.269531 1.035156 -0.300781 1.171875 -0.34375 C 1.316406 -0.394531 1.410156 -0.488281 1.453125 -0.625 C 1.503906 -0.769531 1.53125 -1.003906 1.53125 -1.328125 L 1.53125 -7.5 C 1.53125 -7.820312 1.503906 -8.050781 1.453125 -8.1875 C 1.410156 -8.332031 1.316406 -8.425781 1.171875 -8.46875 C 1.035156 -8.519531 0.820312 -8.554688 0.53125 -8.578125 L 0.53125 -8.828125 C 0.875 -8.804688 1.378906 -8.796875 2.046875 -8.796875 L 3.390625 -8.796875 C 3.546875 -8.804688 3.722656 -8.8125 3.921875 -8.8125 C 4.773438 -8.8125 5.425781 -8.632812 5.875 -8.28125 C 6.332031 -7.925781 6.5625 -7.453125 6.5625 -6.859375 C 6.5625 -6.378906 6.40625 -5.945312 6.09375 -5.5625 C 5.789062 -5.175781 5.3125 -4.882812 4.65625 -4.6875 Z M 3.609375 -8.578125 C 3.359375 -8.578125 3.164062 -8.546875 3.03125 -8.484375 C 2.90625 -8.429688 2.816406 -8.328125 2.765625 -8.171875 C 2.710938 -8.023438 2.6875 -7.800781 2.6875 -7.5 L 2.6875 -4.6875 L 3.53125 -4.6875 C 4.207031 -4.6875 4.679688 -4.867188 4.953125 -5.234375 C 5.222656 -5.609375 5.359375 -6.101562 5.359375 -6.71875 C 5.359375 -7.34375 5.21875 -7.804688 4.9375 -8.109375 C 4.664062 -8.421875 4.222656 -8.578125 3.609375 -8.578125 Z M 3.625 -0.28125 C 5.175781 -0.28125 5.953125 -1.007812 5.953125 -2.46875 C 5.953125 -3.125 5.773438 -3.617188 5.421875 -3.953125 C 5.078125 -4.296875 4.515625 -4.46875 3.734375 -4.46875 L 2.6875 -4.46875 L 2.6875 -1.328125 C 2.6875 -1.023438 2.710938 -0.800781 2.765625 -0.65625 C 2.816406 -0.519531 2.90625 -0.421875 3.03125 -0.359375 C 3.164062 -0.304688 3.363281 -0.28125 3.625 -0.28125 Z M 3.625 -0.28125 "/></g></g></g><g fill="#ffffff" fill-opacity="1"><g transform="translate(129.900718, 242.378419)"><g><path d="M 6.390625 -8.796875 C 6.765625 -8.796875 7.078125 -8.804688 7.328125 -8.828125 L 7.328125 -8.578125 C 7.160156 -8.535156 7 -8.425781 6.84375 -8.25 C 6.6875 -8.082031 6.515625 -7.820312 6.328125 -7.46875 L 4.375 -3.59375 L 4.375 -1.328125 C 4.375 -1.003906 4.398438 -0.769531 4.453125 -0.625 C 4.503906 -0.488281 4.597656 -0.394531 4.734375 -0.34375 C 4.867188 -0.300781 5.085938 -0.269531 5.390625 -0.25 L 5.390625 0 C 5.003906 -0.0195312 4.472656 -0.03125 3.796875 -0.03125 C 3.085938 -0.03125 2.554688 -0.0195312 2.203125 0 L 2.203125 -0.25 C 2.503906 -0.269531 2.722656 -0.300781 2.859375 -0.34375 C 2.992188 -0.394531 3.085938 -0.488281 3.140625 -0.625 C 3.191406 -0.769531 3.21875 -1.003906 3.21875 -1.328125 L 3.21875 -3.1875 L 0.6875 -7.875 C 0.539062 -8.144531 0.410156 -8.328125 0.296875 -8.421875 C 0.179688 -8.515625 0.0703125 -8.5625 -0.03125 -8.5625 L -0.03125 -8.828125 C 0.289062 -8.804688 0.65625 -8.796875 1.0625 -8.796875 C 1.863281 -8.796875 2.445312 -8.804688 2.8125 -8.828125 L 2.8125 -8.5625 C 2.226562 -8.5625 1.9375 -8.40625 1.9375 -8.09375 C 1.9375 -7.96875 1.976562 -7.820312 2.0625 -7.65625 L 4.125 -3.671875 L 5.71875 -6.84375 C 5.945312 -7.28125 6.0625 -7.640625 6.0625 -7.921875 C 6.0625 -8.148438 5.96875 -8.3125 5.78125 -8.40625 C 5.601562 -8.507812 5.332031 -8.566406 4.96875 -8.578125 L 4.96875 -8.828125 C 5.4375 -8.804688 5.910156 -8.796875 6.390625 -8.796875 Z M 6.390625 -8.796875 "/></g></g></g><g fill="#ffffff" fill-opacity="1"><g transform="translate(142.082477, 242.378419)"><g/></g></g><g fill="#ffffff" fill-opacity="1"><g transform="translate(150.00161, 242.378419)"><g><path d="M 7.375 -8.828125 C 7.320312 -8.234375 7.296875 -7.703125 7.296875 -7.234375 C 7.296875 -6.816406 7.304688 -6.472656 7.328125 -6.203125 L 7.046875 -6.203125 C 6.972656 -6.847656 6.882812 -7.328125 6.78125 -7.640625 C 6.6875 -7.953125 6.515625 -8.179688 6.265625 -8.328125 C 6.015625 -8.472656 5.632812 -8.546875 5.125 -8.546875 L 4.453125 -8.546875 L 4.453125 -1.453125 C 4.453125 -1.097656 4.484375 -0.84375 4.546875 -0.6875 C 4.617188 -0.53125 4.738281 -0.421875 4.90625 -0.359375 C 5.070312 -0.304688 5.335938 -0.269531 5.703125 -0.25 L 5.703125 0 C 5.273438 -0.0195312 4.664062 -0.03125 3.875 -0.03125 C 3.039062 -0.03125 2.425781 -0.0195312 2.03125 0 L 2.03125 -0.25 C 2.40625 -0.269531 2.675781 -0.304688 2.84375 -0.359375 C 3.007812 -0.421875 3.125 -0.53125 3.1875 -0.6875 C 3.257812 -0.84375 3.296875 -1.097656 3.296875 -1.453125 L 3.296875 -8.546875 L 2.625 -8.546875 C 2.101562 -8.546875 1.71875 -8.472656 1.46875 -8.328125 C 1.21875 -8.179688 1.039062 -7.953125 0.9375 -7.640625 C 0.84375 -7.328125 0.765625 -6.847656 0.703125 -6.203125 L 0.40625 -6.203125 C 0.4375 -6.472656 0.453125 -6.816406 0.453125 -7.234375 C 0.453125 -7.703125 0.421875 -8.234375 0.359375 -8.828125 C 1.046875 -8.804688 2.21875 -8.796875 3.875 -8.796875 C 5.519531 -8.796875 6.6875 -8.804688 7.375 -8.828125 Z M 7.375 -8.828125 "/></g></g></g><g fill="#ffffff" fill-opacity="1"><g transform="translate(162.557286, 242.378419)"><g><path d="M 8.921875 -8.578125 C 8.617188 -8.554688 8.398438 -8.519531 8.265625 -8.46875 C 8.128906 -8.425781 8.035156 -8.332031 7.984375 -8.1875 C 7.929688 -8.050781 7.90625 -7.820312 7.90625 -7.5 L 7.90625 -1.328125 C 7.90625 -1.003906 7.929688 -0.769531 7.984375 -0.625 C 8.035156 -0.488281 8.128906 -0.394531 8.265625 -0.34375 C 8.398438 -0.300781 8.617188 -0.269531 8.921875 -0.25 L 8.921875 0 C 8.566406 -0.0195312 8.03125 -0.03125 7.3125 -0.03125 C 6.644531 -0.03125 6.117188 -0.0195312 5.734375 0 L 5.734375 -0.25 C 6.035156 -0.269531 6.253906 -0.300781 6.390625 -0.34375 C 6.523438 -0.394531 6.617188 -0.488281 6.671875 -0.625 C 6.722656 -0.769531 6.75 -1.003906 6.75 -1.328125 L 6.75 -4.3125 L 2.6875 -4.3125 L 2.6875 -1.328125 C 2.6875 -1.003906 2.710938 -0.769531 2.765625 -0.625 C 2.816406 -0.488281 2.910156 -0.394531 3.046875 -0.34375 C 3.179688 -0.300781 3.398438 -0.269531 3.703125 -0.25 L 3.703125 0 C 3.316406 -0.0195312 2.789062 -0.03125 2.125 -0.03125 C 1.40625 -0.03125 0.875 -0.0195312 0.53125 0 L 0.53125 -0.25 C 0.820312 -0.269531 1.035156 -0.300781 1.171875 -0.34375 C 1.316406 -0.394531 1.410156 -0.488281 1.453125 -0.625 C 1.503906 -0.769531 1.53125 -1.003906 1.53125 -1.328125 L 1.53125 -7.5 C 1.53125 -7.820312 1.503906 -8.050781 1.453125 -8.1875 C 1.410156 -8.332031 1.316406 -8.425781 1.171875 -8.46875 C 1.035156 -8.519531 0.820312 -8.554688 0.53125 -8.578125 L 0.53125 -8.828125 C 0.875 -8.804688 1.40625 -8.796875 2.125 -8.796875 C 2.789062 -8.796875 3.316406 -8.804688 3.703125 -8.828125 L 3.703125 -8.578125 C 3.398438 -8.554688 3.179688 -8.519531 3.046875 -8.46875 C 2.910156 -8.425781 2.816406 -8.332031 2.765625 -8.1875 C 2.710938 -8.050781 2.6875 -7.820312 2.6875 -7.5 L 2.6875 -4.5625 L 6.75 -4.5625 L 6.75 -7.5 C 6.75 -7.820312 6.722656 -8.050781 6.671875 -8.1875 C 6.617188 -8.332031 6.523438 -8.425781 6.390625 -8.46875 C 6.253906 -8.519531 6.035156 -8.554688 5.734375 -8.578125 L 5.734375 -8.828125 C 6.117188 -8.804688 6.644531 -8.796875 7.3125 -8.796875 C 8.03125 -8.796875 8.566406 -8.804688 8.921875 -8.828125 Z M 8.921875 -8.578125 "/></g></g></g><g fill="#ffffff" fill-opacity="1"><g transform="translate(176.808033, 242.378419)"><g><path d="M 7.0625 -1.046875 C 7.269531 -0.535156 7.5625 -0.269531 7.9375 -0.25 L 7.9375 0 C 7.601562 -0.0195312 7.15625 -0.03125 6.59375 -0.03125 C 5.882812 -0.03125 5.351562 -0.0195312 5 0 L 5 -0.25 C 5.3125 -0.269531 5.535156 -0.3125 5.671875 -0.375 C 5.816406 -0.4375 5.890625 -0.546875 5.890625 -0.703125 C 5.890625 -0.847656 5.835938 -1.046875 5.734375 -1.296875 L 4.96875 -3.34375 L 1.953125 -3.34375 L 1.453125 -2.015625 C 1.285156 -1.566406 1.203125 -1.226562 1.203125 -1 C 1.203125 -0.738281 1.289062 -0.550781 1.46875 -0.4375 C 1.644531 -0.320312 1.914062 -0.257812 2.28125 -0.25 L 2.28125 0 C 1.8125 -0.0195312 1.332031 -0.03125 0.84375 -0.03125 C 0.46875 -0.03125 0.15625 -0.0195312 -0.09375 0 L -0.09375 -0.25 C 0.320312 -0.351562 0.648438 -0.710938 0.890625 -1.328125 L 3.828125 -8.890625 L 4.03125 -8.890625 Z M 4.875 -3.59375 L 3.484375 -7.3125 L 2.0625 -3.59375 Z M 4.875 -3.59375 "/></g></g></g><g fill="#ffffff" fill-opacity="1"><g transform="translate(189.475879, 242.378419)"><g><path d="M 10.34375 -8.578125 C 10.039062 -8.554688 9.816406 -8.519531 9.671875 -8.46875 C 9.535156 -8.425781 9.441406 -8.332031 9.390625 -8.1875 C 9.347656 -8.050781 9.328125 -7.820312 9.328125 -7.5 L 9.328125 -1.328125 C 9.328125 -1.003906 9.347656 -0.769531 9.390625 -0.625 C 9.441406 -0.488281 9.535156 -0.394531 9.671875 -0.34375 C 9.816406 -0.300781 10.039062 -0.269531 10.34375 -0.25 L 10.34375 0 C 9.957031 -0.0195312 9.425781 -0.03125 8.75 -0.03125 C 8.039062 -0.03125 7.507812 -0.0195312 7.15625 0 L 7.15625 -0.25 C 7.457031 -0.269531 7.675781 -0.300781 7.8125 -0.34375 C 7.945312 -0.394531 8.039062 -0.488281 8.09375 -0.625 C 8.144531 -0.769531 8.171875 -1.003906 8.171875 -1.328125 L 8.171875 -8 L 5.15625 0.0625 L 4.96875 0.0625 L 1.828125 -8.03125 L 1.828125 -1.453125 C 1.828125 -1.117188 1.851562 -0.875 1.90625 -0.71875 C 1.957031 -0.5625 2.0625 -0.445312 2.21875 -0.375 C 2.375 -0.3125 2.617188 -0.269531 2.953125 -0.25 L 2.953125 0 C 2.648438 -0.0195312 2.226562 -0.03125 1.6875 -0.03125 C 1.1875 -0.03125 0.800781 -0.0195312 0.53125 0 L 0.53125 -0.25 C 0.8125 -0.269531 1.023438 -0.3125 1.171875 -0.375 C 1.316406 -0.445312 1.410156 -0.5625 1.453125 -0.71875 C 1.503906 -0.882812 1.53125 -1.128906 1.53125 -1.453125 L 1.53125 -7.5 C 1.53125 -7.820312 1.503906 -8.050781 1.453125 -8.1875 C 1.410156 -8.332031 1.316406 -8.425781 1.171875 -8.46875 C 1.035156 -8.519531 0.820312 -8.554688 0.53125 -8.578125 L 0.53125 -8.828125 C 0.800781 -8.804688 1.1875 -8.796875 1.6875 -8.796875 C 2.113281 -8.796875 2.46875 -8.804688 2.75 -8.828125 L 5.484375 -1.609375 L 8.171875 -8.796875 L 8.75 -8.796875 C 9.425781 -8.796875 9.957031 -8.804688 10.34375 -8.828125 Z M 10.34375 -8.578125 "/></g></g></g><g fill="#ffffff" fill-opacity="1"><g transform="translate(205.147505, 242.378419)"><g><path d="M 4.625 -9 C 5.414062 -9 6.109375 -8.820312 6.703125 -8.46875 C 7.296875 -8.113281 7.753906 -7.59375 8.078125 -6.90625 C 8.410156 -6.226562 8.578125 -5.421875 8.578125 -4.484375 C 8.578125 -3.578125 8.40625 -2.769531 8.0625 -2.0625 C 7.726562 -1.351562 7.257812 -0.800781 6.65625 -0.40625 C 6.0625 -0.0195312 5.378906 0.171875 4.609375 0.171875 C 3.816406 0.171875 3.125 -0.00390625 2.53125 -0.359375 C 1.9375 -0.710938 1.472656 -1.226562 1.140625 -1.90625 C 0.816406 -2.59375 0.65625 -3.40625 0.65625 -4.34375 C 0.65625 -5.25 0.820312 -6.054688 1.15625 -6.765625 C 1.5 -7.472656 1.972656 -8.019531 2.578125 -8.40625 C 3.179688 -8.800781 3.863281 -9 4.625 -9 Z M 4.578125 -8.78125 C 4.046875 -8.78125 3.578125 -8.59375 3.171875 -8.21875 C 2.765625 -7.851562 2.453125 -7.335938 2.234375 -6.671875 C 2.015625 -6.003906 1.90625 -5.242188 1.90625 -4.390625 C 1.90625 -3.523438 2.023438 -2.765625 2.265625 -2.109375 C 2.515625 -1.453125 2.847656 -0.941406 3.265625 -0.578125 C 3.679688 -0.222656 4.144531 -0.046875 4.65625 -0.046875 C 5.195312 -0.046875 5.664062 -0.226562 6.0625 -0.59375 C 6.46875 -0.96875 6.78125 -1.488281 7 -2.15625 C 7.21875 -2.820312 7.328125 -3.582031 7.328125 -4.4375 C 7.328125 -5.300781 7.203125 -6.0625 6.953125 -6.71875 C 6.710938 -7.375 6.382812 -7.878906 5.96875 -8.234375 C 5.550781 -8.597656 5.085938 -8.78125 4.578125 -8.78125 Z M 4.578125 -8.78125 "/></g></g></g><g fill="#ffffff" fill-opacity="1"><g transform="translate(219.198837, 242.378419)"><g><path d="M 3.921875 -8.828125 C 5.398438 -8.828125 6.503906 -8.457031 7.234375 -7.71875 C 7.960938 -6.988281 8.328125 -5.921875 8.328125 -4.515625 C 8.328125 -3.609375 8.144531 -2.8125 7.78125 -2.125 C 7.425781 -1.445312 6.910156 -0.921875 6.234375 -0.546875 C 5.554688 -0.179688 4.75 0 3.8125 0 L 3.09375 -0.015625 C 2.625 -0.0234375 2.28125 -0.03125 2.0625 -0.03125 C 1.382812 -0.03125 0.875 -0.0195312 0.53125 0 L 0.53125 -0.25 C 0.820312 -0.269531 1.035156 -0.300781 1.171875 -0.34375 C 1.316406 -0.394531 1.410156 -0.488281 1.453125 -0.625 C 1.503906 -0.769531 1.53125 -1.003906 1.53125 -1.328125 L 1.53125 -7.5 C 1.53125 -7.820312 1.503906 -8.050781 1.453125 -8.1875 C 1.410156 -8.332031 1.316406 -8.425781 1.171875 -8.46875 C 1.035156 -8.519531 0.820312 -8.554688 0.53125 -8.578125 L 0.53125 -8.828125 C 0.8125 -8.804688 1.210938 -8.796875 1.734375 -8.796875 L 2.796875 -8.796875 C 3.359375 -8.816406 3.734375 -8.828125 3.921875 -8.828125 Z M 3.609375 -8.609375 C 3.359375 -8.609375 3.164062 -8.578125 3.03125 -8.515625 C 2.90625 -8.453125 2.816406 -8.347656 2.765625 -8.203125 C 2.710938 -8.054688 2.6875 -7.832031 2.6875 -7.53125 L 2.6875 -1.296875 C 2.6875 -0.992188 2.710938 -0.769531 2.765625 -0.625 C 2.816406 -0.476562 2.90625 -0.375 3.03125 -0.3125 C 3.164062 -0.25 3.363281 -0.21875 3.625 -0.21875 C 4.507812 -0.21875 5.203125 -0.378906 5.703125 -0.703125 C 6.210938 -1.023438 6.566406 -1.492188 6.765625 -2.109375 C 6.972656 -2.722656 7.078125 -3.507812 7.078125 -4.46875 C 7.078125 -5.414062 6.960938 -6.191406 6.734375 -6.796875 C 6.515625 -7.398438 6.15625 -7.851562 5.65625 -8.15625 C 5.15625 -8.457031 4.472656 -8.609375 3.609375 -8.609375 Z M 3.609375 -8.609375 "/></g></g></g><g fill="#ffffff" fill-opacity="1"><g transform="translate(233.025822, 242.378419)"><g><path d="M 3.921875 -8.828125 C 5.398438 -8.828125 6.503906 -8.457031 7.234375 -7.71875 C 7.960938 -6.988281 8.328125 -5.921875 8.328125 -4.515625 C 8.328125 -3.609375 8.144531 -2.8125 7.78125 -2.125 C 7.425781 -1.445312 6.910156 -0.921875 6.234375 -0.546875 C 5.554688 -0.179688 4.75 0 3.8125 0 L 3.09375 -0.015625 C 2.625 -0.0234375 2.28125 -0.03125 2.0625 -0.03125 C 1.382812 -0.03125 0.875 -0.0195312 0.53125 0 L 0.53125 -0.25 C 0.820312 -0.269531 1.035156 -0.300781 1.171875 -0.34375 C 1.316406 -0.394531 1.410156 -0.488281 1.453125 -0.625 C 1.503906 -0.769531 1.53125 -1.003906 1.53125 -1.328125 L 1.53125 -7.5 C 1.53125 -7.820312 1.503906 -8.050781 1.453125 -8.1875 C 1.410156 -8.332031 1.316406 -8.425781 1.171875 -8.46875 C 1.035156 -8.519531 0.820312 -8.554688 0.53125 -8.578125 L 0.53125 -8.828125 C 0.8125 -8.804688 1.210938 -8.796875 1.734375 -8.796875 L 2.796875 -8.796875 C 3.359375 -8.816406 3.734375 -8.828125 3.921875 -8.828125 Z M 3.609375 -8.609375 C 3.359375 -8.609375 3.164062 -8.578125 3.03125 -8.515625 C 2.90625 -8.453125 2.816406 -8.347656 2.765625 -8.203125 C 2.710938 -8.054688 2.6875 -7.832031 2.6875 -7.53125 L 2.6875 -1.296875 C 2.6875 -0.992188 2.710938 -0.769531 2.765625 -0.625 C 2.816406 -0.476562 2.90625 -0.375 3.03125 -0.3125 C 3.164062 -0.25 3.363281 -0.21875 3.625 -0.21875 C 4.507812 -0.21875 5.203125 -0.378906 5.703125 -0.703125 C 6.210938 -1.023438 6.566406 -1.492188 6.765625 -2.109375 C 6.972656 -2.722656 7.078125 -3.507812 7.078125 -4.46875 C 7.078125 -5.414062 6.960938 -6.191406 6.734375 -6.796875 C 6.515625 -7.398438 6.15625 -7.851562 5.65625 -8.15625 C 5.15625 -8.457031 4.472656 -8.609375 3.609375 -8.609375 Z M 3.609375 -8.609375 "/></g></g></g><g fill="#ffffff" fill-opacity="1"><g transform="translate(246.852806, 242.378419)"><g><path d="M 6.390625 -8.796875 C 6.765625 -8.796875 7.078125 -8.804688 7.328125 -8.828125 L 7.328125 -8.578125 C 7.160156 -8.535156 7 -8.425781 6.84375 -8.25 C 6.6875 -8.082031 6.515625 -7.820312 6.328125 -7.46875 L 4.375 -3.59375 L 4.375 -1.328125 C 4.375 -1.003906 4.398438 -0.769531 4.453125 -0.625 C 4.503906 -0.488281 4.597656 -0.394531 4.734375 -0.34375 C 4.867188 -0.300781 5.085938 -0.269531 5.390625 -0.25 L 5.390625 0 C 5.003906 -0.0195312 4.472656 -0.03125 3.796875 -0.03125 C 3.085938 -0.03125 2.554688 -0.0195312 2.203125 0 L 2.203125 -0.25 C 2.503906 -0.269531 2.722656 -0.300781 2.859375 -0.34375 C 2.992188 -0.394531 3.085938 -0.488281 3.140625 -0.625 C 3.191406 -0.769531 3.21875 -1.003906 3.21875 -1.328125 L 3.21875 -3.1875 L 0.6875 -7.875 C 0.539062 -8.144531 0.410156 -8.328125 0.296875 -8.421875 C 0.179688 -8.515625 0.0703125 -8.5625 -0.03125 -8.5625 L -0.03125 -8.828125 C 0.289062 -8.804688 0.65625 -8.796875 1.0625 -8.796875 C 1.863281 -8.796875 2.445312 -8.804688 2.8125 -8.828125 L 2.8125 -8.5625 C 2.226562 -8.5625 1.9375 -8.40625 1.9375 -8.09375 C 1.9375 -7.96875 1.976562 -7.820312 2.0625 -7.65625 L 4.125 -3.671875 L 5.71875 -6.84375 C 5.945312 -7.28125 6.0625 -7.640625 6.0625 -7.921875 C 6.0625 -8.148438 5.96875 -8.3125 5.78125 -8.40625 C 5.601562 -8.507812 5.332031 -8.566406 4.96875 -8.578125 L 4.96875 -8.828125 C 5.4375 -8.804688 5.910156 -8.796875 6.390625 -8.796875 Z M 6.390625 -8.796875 "/></g></g></g><g fill="#ffffff" fill-opacity="1"><g transform="translate(259.034571, 242.378419)"><g><path d="M 7.0625 -1.046875 C 7.269531 -0.535156 7.5625 -0.269531 7.9375 -0.25 L 7.9375 0 C 7.601562 -0.0195312 7.15625 -0.03125 6.59375 -0.03125 C 5.882812 -0.03125 5.351562 -0.0195312 5 0 L 5 -0.25 C 5.3125 -0.269531 5.535156 -0.3125 5.671875 -0.375 C 5.816406 -0.4375 5.890625 -0.546875 5.890625 -0.703125 C 5.890625 -0.847656 5.835938 -1.046875 5.734375 -1.296875 L 4.96875 -3.34375 L 1.953125 -3.34375 L 1.453125 -2.015625 C 1.285156 -1.566406 1.203125 -1.226562 1.203125 -1 C 1.203125 -0.738281 1.289062 -0.550781 1.46875 -0.4375 C 1.644531 -0.320312 1.914062 -0.257812 2.28125 -0.25 L 2.28125 0 C 1.8125 -0.0195312 1.332031 -0.03125 0.84375 -0.03125 C 0.46875 -0.03125 0.15625 -0.0195312 -0.09375 0 L -0.09375 -0.25 C 0.320312 -0.351562 0.648438 -0.710938 0.890625 -1.328125 L 3.828125 -8.890625 L 4.03125 -8.890625 Z M 4.875 -3.59375 L 3.484375 -7.3125 L 2.0625 -3.59375 Z M 4.875 -3.59375 "/></g></g></g></svg>